# xmcd
#
# Track frame offsets:
# 150
# 17401
# 38246
# 57316
# 76460
# 93928
# 113749
# 119466
# 140021
# 161945
# 185569
# 202721
# 222946
#
# Disc length: 3179 seconds
#
#
# Revision: 1
# Processed by: cddbd v1.5.2PL0 Copyright (c) Steve Scherf et al.
# Submitted via: FreeRIP 2.951 
#
DISCID=b10c690d
DTITLE=Maria - My Soul
DYEAR=2003
DGENRE=R&B
TTITLE0=Lonely
TTITLE1=I Give, You Take
TTITLE2=My Soul
TTITLE3=Nowadays
TTITLE4=Coffee in Bed
TTITLE5=You, Me and She
TTITLE6=Dreams from the Hills (Interlude)
TTITLE7=Intoxicated
TTITLE8=Weakness
TTITLE9=Always
TTITLE10=Simplified
TTITLE11=Hate to Love You
TTITLE12=Miss You
EXTD=
EXTT0=
EXTT1=
EXTT2=
EXTT3=
EXTT4=
EXTT5=
EXTT6=
EXTT7=
EXTT8=
EXTT9=
EXTT10=
EXTT11=
EXTT12=
PLAYORDER=
